<svg width="256" height="256" viewBox="0 0 256 256" fill="none" xmlns="http://www.w3.org/2000/svg">
<rect width="256" height="256" rx="20" fill="white"/>
<path d="M30.1646 122H11.8467V34.1943H62.1758V49.4492H30.1646V72.0913H59.9536V87.2861H30.1646V122ZM79.3525 122V34.1943H97.9707V122H79.3525ZM138.69 75.5146H144.816C150.542 75.5146 154.826 74.3936 157.669 72.1514C160.512 69.8691 161.933 66.5659 161.933 62.2417C161.933 57.8774 160.732 54.6543 158.33 52.5723C155.967 50.4902 152.244 49.4492 147.159 49.4492H138.69V75.5146ZM180.731 61.5811C180.731 71.0303 177.769 78.2573 171.843 83.2622C165.957 88.2671 157.569 90.7695 146.678 90.7695H138.69V122H120.072V34.1943H148.12C158.77 34.1943 166.858 36.4966 172.383 41.1011C177.949 45.6655 180.731 52.4922 180.731 61.5811ZM247.877 122H197.308V34.1943H247.877V49.4492H215.926V68.728H245.655V83.9829H215.926V106.625H247.877V122Z" fill="#191BC2"/>
<path d="M63.6421 203H46.9048L19.8872 156.017H19.5049C20.043 164.314 20.312 170.233 20.312 173.773V203H8.54492V140.894H25.1548L52.1299 187.41H52.4272C52.0024 179.338 51.79 173.632 51.79 170.29V140.894H63.6421V203ZM108.459 203L105.953 196.543H105.613C103.432 199.29 101.181 201.202 98.8584 202.278C96.5645 203.326 93.5625 203.85 89.8525 203.85C85.293 203.85 81.6963 202.547 79.0625 199.941C76.457 197.336 75.1543 193.626 75.1543 188.812C75.1543 183.771 76.9102 180.061 80.4219 177.682C83.9619 175.274 89.2861 173.943 96.3945 173.688L104.636 173.434V171.352C104.636 166.538 102.172 164.13 97.2441 164.13C93.4492 164.13 88.9888 165.277 83.8628 167.571L79.5723 158.82C85.0381 155.96 91.0986 154.53 97.7539 154.53C104.126 154.53 109.011 155.917 112.41 158.693C115.808 161.468 117.507 165.688 117.507 171.352V203H108.459ZM104.636 180.995L99.623 181.165C95.8564 181.278 93.0527 181.958 91.2119 183.204C89.3711 184.45 88.4507 186.348 88.4507 188.896C88.4507 192.55 90.5464 194.376 94.7378 194.376C97.7397 194.376 100.133 193.513 101.917 191.785C103.729 190.058 104.636 187.764 104.636 184.903V180.995ZM150.897 193.527C153.163 193.527 155.881 193.031 159.053 192.04V201.683C155.825 203.127 151.86 203.85 147.159 203.85C141.976 203.85 138.195 202.547 135.816 199.941C133.466 197.308 132.291 193.371 132.291 188.132V165.235H126.088V159.755L133.225 155.422L136.963 145.396H145.247V155.507H158.543V165.235H145.247V188.132C145.247 189.973 145.757 191.332 146.776 192.21C147.824 193.088 149.198 193.527 150.897 193.527ZM179.019 179.168C179.019 183.87 179.784 187.424 181.313 189.831C182.871 192.238 185.391 193.442 188.875 193.442C192.33 193.442 194.808 192.252 196.309 189.874C197.838 187.466 198.603 183.898 198.603 179.168C198.603 174.467 197.838 170.941 196.309 168.591C194.779 166.24 192.273 165.065 188.79 165.065C185.334 165.065 182.842 166.24 181.313 168.591C179.784 170.913 179.019 174.439 179.019 179.168ZM211.856 179.168C211.856 186.9 209.817 192.946 205.739 197.308C201.661 201.669 195.983 203.85 188.705 203.85C184.145 203.85 180.124 202.858 176.64 200.876C173.157 198.865 170.48 195.991 168.611 192.252C166.742 188.514 165.808 184.153 165.808 179.168C165.808 171.409 167.833 165.376 171.882 161.072C175.932 156.767 181.625 154.615 188.959 154.615C193.519 154.615 197.541 155.606 201.024 157.588C204.507 159.571 207.184 162.417 209.053 166.127C210.922 169.837 211.856 174.184 211.856 179.168ZM249.069 154.615C250.825 154.615 252.284 154.742 253.445 154.997L252.468 167.146C251.42 166.863 250.146 166.722 248.645 166.722C244.51 166.722 241.281 167.784 238.959 169.908C236.665 172.032 235.518 175.005 235.518 178.829V203H222.562V155.507H232.375L234.286 163.493H234.923C236.396 160.831 238.378 158.693 240.871 157.079C243.391 155.436 246.124 154.615 249.069 154.615Z" fill="black"/>
</svg>
